<svg version="1.1" id="Layer_1" xmlns="http://www.w3.org/2000/svg" xmlns:xlink="http://www.w3.org/1999/xlink" x="0px" y="0px"
	 width="18.7px" height="16px" viewBox="296.7 388 18.7 16" enable-background="new 296.7 388 18.7 16" xml:space="preserve">
<g>
	<path fill="#A8A8A8" d="M300.7,396h1.3l-2.7-4l-2.7,4h1.3c0,4.4,3.6,8,8,8c1,0,1.9-0.2,2.7-0.4v-2.9c-0.8,0.4-1.7,0.7-2.7,0.7
		C303.1,401.3,300.7,398.9,300.7,396z M314,396c0-4.4-3.6-8-8-8c-1,0-1.9,0.2-2.7,0.4v2.9c0.8-0.4,1.7-0.7,2.7-0.7
		c2.9,0,5.3,2.4,5.3,5.3H310l2.7,4l2.7-4H314L314,396z"/>
</g>
</svg>
