<svg version="1.1" id="Layer_1" xmlns="http://www.w3.org/2000/svg" xmlns:xlink="http://www.w3.org/1999/xlink" x="0px" y="0px"
	 width="21px" height="18px" viewBox="295.5 387 21 18" enable-background="new 295.5 387 21 18" xml:space="preserve">
<g>
	<path fill="#a8a8a8" d="M300,396h1.5l-3-4.5l-3,4.5h1.5c0,5,4,9,9,9c1.1,0,2.1-0.2,3-0.5v-3.3c-0.9,0.5-1.9,0.8-3,0.8
		C302.7,402,300,399.3,300,396z M315,396c0-5-4-9-9-9c-1.1,0-2.1,0.2-3,0.5v3.3c0.9-0.5,1.9-0.8,3-0.8c3.3,0,6,2.7,6,6h-1.5l3,4.5
		l3-4.5L315,396L315,396z"/>
</g>
</svg>
