<svg version="1.1" id="Layer_1" xmlns="http://www.w3.org/2000/svg" xmlns:xlink="http://www.w3.org/1999/xlink" x="0px" y="0px"
	 width="13.3px" height="16px" viewBox="300 386.5 13.3 16" enable-background="new 300 386.5 13.3 16" xml:space="preserve">
<g>
	<path fill="#A8A8A8" d="M303.6,387c0,0.2,0,0.9-0.2,1c-0.3,0.2-0.9,0.3-1.3,0.5c-0.6,0.3-1.4,1-0.7,1.6c1.2,1.2,3.5,1.3,5.1,1.3
		c1,0,1.9-0.1,2.8-0.2c0.8-0.2,1.8-0.4,2.4-1c0.7-0.6,0.2-1.2-0.5-1.6c-0.4-0.2-0.9-0.3-1.3-0.5c-0.3-0.1-0.3-0.9-0.3-1.1
		c0.6-0.1,1.5,0.4,2.1,0.6c0.6,0.3,1.3,0.8,1.4,1.6c0.1,0.7,0.2,1.6-0.4,2.2c-0.3,0.3-0.3,0.7-0.3,1.1c-0.1,0.6-0.1,1.1-0.2,1.6
		c-0.2,1.9-0.4,3.9-0.6,5.8c-0.2,1.8-2.2,2.2-3.8,2.4c-1.8,0.2-3.9,0.1-5.4-0.9c-0.6-0.4-0.9-1-1-1.7c-0.1-1-0.2-2-0.3-3
		c-0.1-0.9-0.2-1.8-0.3-2.7c0-0.5-0.1-0.9-0.2-1.4c0-0.5,0-0.9-0.3-1.3c-1-1.1-0.5-2.9,0.7-3.6C301.9,387.4,302.8,387.2,303.6,387
		C303.5,387.4,303.5,387,303.6,387z M304.2,399.9c-0.2-1.6-0.3-3.2-0.5-4.8c-0.1-0.6,0-1.4-0.2-1.9c-0.2-0.3-1-0.6-1.1-0.1
		c0,0.7,0.2,1.5,0.2,2.2c0.1,0.8,0.2,1.6,0.2,2.5c0.1,0.7,0.1,1.4,0.2,2.2C303.2,400.5,304.2,400.7,304.2,399.9
		C304.1,399.7,304.2,400.1,304.2,399.9z M309.1,400c-0.1,0.6,0.7,0.5,1,0.2c0.3-0.5,0.2-1.5,0.3-2.1c0.2-1.6,0.4-3.2,0.5-4.9
		c0.1-0.6-0.7-0.5-1-0.1c-0.4,0.6-0.3,1.5-0.3,2.2C309.4,396.8,309.2,398.4,309.1,400C309,400.4,309.2,398.8,309.1,400z
		 M307.2,397.1c0-0.7,0.1-1.5,0.1-2.2c0-0.5,0.2-1.4-0.5-1.5c-0.6-0.1-0.7,0.3-0.7,0.8c0,0.9,0,1.7,0,2.6c0,0.8,0,1.5,0,2.3
		c0,0.5-0.2,1.7,0.3,1.9c0.8,0.3,0.7-0.7,0.7-1.2C307.2,398.8,307.2,397.9,307.2,397.1C307.2,396,307.2,398.2,307.2,397.1z"/>
	<path fill="#A8A8A8" d="M308.7,386.9c0.5,0.5,0.5,1.4,0.4,2.1c-0.1,0.3-0.6,0.3-0.8,0.3c-0.4-0.1-0.4-0.3-0.4-0.6
		c0-0.2,0.1-0.8-0.1-1c-0.2-0.2-0.8-0.2-1.1-0.2c-0.2,0-0.9-0.1-1.1,0.2s-0.2,0.8-0.2,1c0,0.4,0,0.6-0.4,0.6
		c-0.6,0.1-0.8-0.2-0.8-0.6c0-0.6-0.1-1.4,0.5-1.9c0.5-0.5,1.5-0.4,1.9-0.4S308.1,386.4,308.7,386.9z"/>
</g>
</svg>
